<svg xmlns="http://www.w3.org/2000/svg" xmlns:xlink="http://www.w3.org/1999/xlink" width="315" height="298" viewBox="0 0 315 298"><defs><path id="8n59a" d="M987.03 750.98l10-20.09h-13.4c-.04.13-.11.25-.2.35l-7.26 7.95.66 10.58v.2zm10.04-20.78l49.2-1.52c.17-.33.5-.54.89-.55l38.15-.68 1.28-.77-103.87-3.37-9.9 3.77-.39.16-5.98 2.27h16.22a1.03 1.03 0 0 1 .97.7zm13.4 23.08c.1 0 .17.04.23.1.07.07.1.15.1.25v12.15l13.6 4.39-5.36-28.2a.34.34 0 0 1 .1-.3l2.5-2.51-3.19-3.2a.34.34 0 0 1-.1-.24l-.16-5.48-9.74.3-10.5 21.51zm-13.07-22.4l.33.16-9.97 20 9.46.94 10.45-21.42zm-67.9 24.47l75.39-1.92-28.42-2.8c-.19.15-.42.24-.66.24l-83.75.3zm97.24-25.38l27.76 26.06 16.73-1.24-24.78-24.9a1.03 1.03 0 0 1-.28-.52zm-.97.03l-6.9.22.16 5.35 3.34 3.34c.06.07.1.16.1.25s-.04.18-.1.24l-2.62 2.63 8.2 43.23a.34.34 0 0 1-.13.34l-3 2.25c.44-.07.91-.11 1.41-.11h.02c.92 0 1.7.3 2.32.8.63.5 1.1 1.19 1.48 1.94.65 1.32.98 2.88 1.15 4.15h1.9l20.94-27.34v-10.76zm26.2 60.96v3.02l42.26 6.16-.1.68-42.15-6.14v3.05c0 .14-.1.27-.23.32l-7.55 2.76a.34.34 0 0 1-.46-.33V786.7c0-.18.14-.32.31-.34l7.55-.69h.04s-.09 0 0 0a.34.34 0 0 1 .34.34v3.9l20.13-23.47-17.55 1.3-20.59 26.89h8.74c.1 0 .18.03.25.1.06.06.1.15.1.24v5.51a.34.34 0 0 1-.35.35h-23.33a.34.34 0 0 1-.34-.35v-4.82c0-.02 0-1.11.37-2.49a7.56 7.56 0 0 1 2.66-4.18c.2-.15.42-.3.65-.42l4.52-3.4-2.7-14.23-13.74-4.44v29.7l12.82 12.2 70.37-6.87 9.42-13.24.17.02-44.51-5.61zm42.5 11.1a.34.34 0 0 1-.25.14l-70.69 6.9h-.03a.34.34 0 0 1-.24-.1l-13.04-12.4a.34.34 0 0 1-.1-.25v-42.37l-80.63 2.06h-.05l-43.4-4.85-4.95.02-1.36 101.65c0 .55-.43.99-.97 1.02h-.04l-.12.01a31.18 31.18 0 0 0-2.1.22c-1.34.17-3.08.47-4.63.93-1.04.31-1.99.7-2.66 1.13-.39.25-.68.5-.86.74-.2.28-.28.5-.29.76 0 .32.08.56.25.82.18.26.47.54.9.8.85.54 2.21 1 3.86 1.33 3.3.67 7.72.85 11.8.84 3.8 0 7.19-1.41 9.65-2.88a22.54 22.54 0 0 0 4.04-3.01c.32-.33.81-.4 1.2-.19l32.81 17.48v-111l-19.9-1.66v96.1c0 .12-.06.23-.17.29a.35.35 0 0 1-.33.01l-21.28-11.02.32-.61 20.77 10.76v-95.9c0-.1.04-.19.11-.25a.34.34 0 0 1 .26-.1l20.22 1.7v-4.8h.69v4.82l73.07-2.4h.01c.1 0 .18.03.24.1.07.06.1.15.1.24l-1.37 97.85-.68-.01 1.36-97.48-72.73 2.39v88.68l2.48 1.25h6.78c.1 0 .18.03.24.1.07.06.1.15.1.24v19.57l216.35-35.06.17-.01h2.05a1.03 1.03 0 0 1 1.03 1.03v4.82c0 .55-.42 1-.96 1.04h-.19a37.73 37.73 0 0 0-2.38.25c-1.5.18-3.41.5-5.02.97-1.07.31-2 .71-2.54 1.11-.31.23-.47.44-.53.57a.47.47 0 0 0 .01.42c.04.1.12.21.24.35a5 5 0 0 0 1.26.95c1.17.68 2.93 1.33 4.97 1.87 4.1 1.1 9.37 1.78 13.72 1.78 3.03 0 4.9-.5 6.03-1.07 1.13-.57 1.53-1.18 1.72-1.59.13-.27.14-.46.14-.47l.01-.08v-.06c0-.2-.04-.8-.53-1.5-.5-.7-1.47-1.55-3.58-2.15-1.4-.4-3.3-.66-5.85-.66a1.03 1.03 0 0 1-1.03-1.04c0-.99-.1-4.07-.21-7.5l-.36-9.7-.11-2.74v-.09a7.62 7.62 0 0 0-.48-2.5c-.14-.3-.3-.46-.38-.5a.31.31 0 0 0-.17-.05h-4.12a1.03 1.03 0 0 1-1.03-1.03v-42.72c0-.16.04-.33.11-.47l2.64-5.29v-20l-2.15-2.16h-.08l-19.14 19.89a.35.35 0 0 1-.25.1h-37.4v18.95c0 .07-.02.14-.07.2l-.26.37-.06.46-.24-.03zm9.66-14.78v-18.86l.32.02-31.4-2.05-13.44 15.68 44.26 5.59zm37.94-19.53l18.6-19.31-73.26-1-14.1 14.83-.06.05v3.39l31.23 2.04zm-199.9 120.97a.34.34 0 0 1-.34.3h-6.17a.34.34 0 0 1-.28-.14l-2.74-3.43a.34.34 0 0 1-.07-.21v-1.05h-.53c-.96 0-2.63.05-4.43.33-1.79.29-3.7.82-5.07 1.68a4.86 4.86 0 0 0-1.98 2.14 4.23 4.23 0 0 0 .04 3.39c.25.48.61.91 1.1 1.31.97.8 2.44 1.44 4.14 1.88 3.4.88 7.67 1.01 10.62 1.01l2.63-.01c1.28 0 3.63-.15 6.17-.56a27 27 0 0 0 7.3-2.1 6.83 6.83 0 0 0 2.9-2.32c.29-.5.44-.99.44-1.57 0-.56-.14-1.02-.42-1.47a4.7 4.7 0 0 0-1.27-1.3 14.28 14.28 0 0 0-4.42-1.91c-2.98-.83-6.1-1.1-7.04-1.16zm-.64-.38l.54-4.93a1.03 1.03 0 0 1-.58-.93v-9.65c0-.44.28-.83.69-.97V852.5H936v35.83zm41.83-165.7l104.32 3.38.22-.13-5.37-31.7c-.06-.32.05-.66.29-.9l.6-.6-2.36-16.27-.25-.22c-.18-.16-.3-.37-.34-.6l-4.7-28.38-109.35-45zm-11.02 3.89l-15.6-116.87-9.32 4.36 16.24 115.5h.85zm.66-.26l9.63-3.87-16.91-120.25-8.68 1.75.57 4.56c.04.3-.05.58-.24.8zm47.71 65.4a9.86 9.86 0 0 0-.98 3.92V800.14h10.97v-3.1-.13l-.01-.39-.1-1.33c-.12-.97-.33-2.2-.71-3.32a6 6 0 0 0-1.73-2.79 2.96 2.96 0 0 0-1.9-.66c-1.31 0-2.34.29-3.16.73l-1.24.94a6.37 6.37 0 0 0-1.14 1.58zm10.68 5.37v3.1h10.98v-4.82h-11.08c.1 1 .1 1.71.1 1.72zm13.04-10.02v12.97l6.86-2.5V786.39zM935.3 887.7v-35.33l-2.05-1.03v21.88l.14.08c.33.18.54.53.54.91v8.96a1.03 1.03 0 0 1-.68.97v.97zm119.41-131v10.34l17.85-1.33v-3.12a1.04 1.04 0 0 1-1.03-1.03v-6.1zm55.59 18.63v24.12h-1.37v-24.12h1.37m3.43 0v24.12h-1.37v-24.12h1.37m3.43 0v24.12h-1.37v-24.12h1.37m3.43 0v24.12h-1.37v-24.12h1.37m3.43 0v24.12h-1.37v-24.12h1.37m3.44 0v24.12h-1.38v-24.12h1.38m3.43 0v24.12h-1.38v-24.12h1.38m3.43 0v24.12h-1.37v-24.12h1.37m3.43 0v24.12h-1.37v-24.12h1.37m3.43 0v24.12h-1.37v-24.12h1.37m-55.24-85.18v-9.44l-4.1-3.6 2.17 14.98zm76.19 56.24c.26 0 .52.12.7.3l2.75 2.76c.2.2.3.46.3.73v20.67c0 .17-.03.32-.1.47l-2.64 5.29V818.05h3.09c.43 0 .85.12 1.19.32.34.2.61.46.82.74.42.57.64 1.2.79 1.8.26 1.07.28 2.07.29 2.27 0 .22.38 9.76.58 15.7l.09 3.3c3.46.1 5.84.7 7.51 1.55a6.24 6.24 0 0 1 3.17 3.2 4.43 4.43 0 0 1 .31 1.85c0 .24-.09.96-.63 1.8-.61.95-1.8 1.98-3.86 2.61-1.38.43-3.15.7-5.46.7-2.8 0-5.92-.27-8.9-.74a45.14 45.14 0 0 1-8.14-1.98 13.7 13.7 0 0 1-3.77-1.93c-.54-.44-.99-.92-1.26-1.53a2.6 2.6 0 0 1 .54-2.93c.45-.48 1-.84 1.62-1.15a18 18 0 0 1 4.26-1.35c1.96-.4 3.9-.62 5.02-.72v-2.83h-.95L943.55 873.7v7.8c.67.07 1.64.17 2.76.34 2.14.33 4.83.9 7.11 1.94 1.52.7 2.9 1.61 3.76 2.94a5.03 5.03 0 0 1 .04 5.28 7.1 7.1 0 0 1-1.89 2 17.32 17.32 0 0 1-5.5 2.47 44.14 44.14 0 0 1-10.74 1.5l-2.63.02a61.7 61.7 0 0 1-7.13-.36c-2.59-.3-5.19-.85-7.28-1.93a7.26 7.26 0 0 1-3.28-3.04 6.3 6.3 0 0 1-.1-5.16c.34-.77.82-1.42 1.38-1.98 1.14-1.1 2.6-1.82 4.11-2.31a26.8 26.8 0 0 1 7.72-1.1v-7.29l-32.43-17.28c-.7.61-1.99 1.67-3.75 2.73-2.68 1.61-6.44 3.25-10.82 3.25-2.73 0-5.6-.07-8.26-.32-2.66-.26-5.1-.67-7-1.42a6.28 6.28 0 0 1-3.01-2.14 3.5 3.5 0 0 1-.6-1.98c-.01-.76.28-1.47.71-2.02.43-.56 1-1 1.61-1.36a15.89 15.89 0 0 1 4.3-1.58c1.98-.47 3.93-.7 5.05-.81l1.36-101.73c.01-.57.47-1.02 1.03-1.02l94.64-.34-.62-9.93c-.02-.28.08-.56.27-.76l5.97-6.54h-17.56c-.52 0-.95-.38-1.02-.89l-16.47-117.14c-.07-.45.17-.89.58-1.08l9.61-4.5-.59-4.77c-.07-.54.29-1.04.82-1.14l10.3-2.07c.2-.04.4-.02.59.06l110.48 45.48c.33.13.57.43.63.78l4.74 28.58 5.21 4.58c.23.2.36.48.36.77v10.34c0 .28-.11.54-.3.73l-3.06 3.07 5.4 31.86c.07.42-.12.84-.49 1.06l-3.43 2.06c-.15.1-.33.15-.5.15l-36.01.65 23.67 23.77c.2.2.3.46.3.73v4.31l12.64-13.3c.2-.2.47-.31.76-.31z"/></defs><g><g transform="translate(-866 -600)"><use fill="#fff" xlink:href="#8n59a"/></g></g></svg>